<?xml version="1.0" standalone="no"?>
<!DOCTYPE svg PUBLIC "-//W3C//DTD SVG 20010904//EN"
 "http://www.w3.org/TR/2001/REC-SVG-20010904/DTD/svg10.dtd">
<svg version="1.0" xmlns="http://www.w3.org/2000/svg"
 width="152.000000pt" height="163.000000pt" viewBox="0 0 152.000000 163.000000"
 preserveAspectRatio="xMidYMid meet">
<metadata>
Created by potrace 1.15, written by Peter Selinger 2001-2017
</metadata>
<g transform="translate(0.000000,163.000000) scale(0.100000,-0.100000)"
fill="#000000" stroke="none">
<path d="M0 815 l0 -815 760 0 760 0 0 815 0 815 -760 0 -760 0 0 -815z m949
696 l174 -88 -179 -92 -179 -93 -177 88 c-98 49 -178 91 -178 94 0 7 332 177
350 178 8 1 93 -38 189 -87z m-362 -693 l182 -93 180 93 180 93 180 -91 c100
-49 181 -92 181 -95 0 -3 -81 -45 -180 -95 l-180 -90 0 -250 0 -250 -175 87
-175 88 -2 250 -3 250 -2 -247 -3 -246 -188 -95 -188 -96 -182 95 -182 95 0
252 0 252 178 92 c97 51 182 93 187 93 6 0 92 -41 192 -92z"/>
</g>
</svg>
